<?xml version="1.0" encoding="UTF-8" standalone="no"?>
<!-- Created with Inkscape (http://www.inkscape.org/) -->

<svg
   width="590"
   height="1440"
   viewBox="0 0 156.10417 381"
   version="1.1"
   id="svg1"
   inkscape:version="1.3.2 (091e20ef0f, 2023-11-25)"
   sodipodi:docname="bordertop.svg"
   xmlns:inkscape="http://www.inkscape.org/namespaces/inkscape"
   xmlns:sodipodi="http://sodipodi.sourceforge.net/DTD/sodipodi-0.dtd"
   xmlns="http://www.w3.org/2000/svg"
   xmlns:svg="http://www.w3.org/2000/svg">
  <sodipodi:namedview
     id="namedview1"
     pagecolor="#ffffff"
     bordercolor="#000000"
     borderopacity="0.25"
     inkscape:showpageshadow="2"
     inkscape:pageopacity="0.0"
     inkscape:pagecheckerboard="0"
     inkscape:deskcolor="#d1d1d1"
     inkscape:document-units="mm"
     inkscape:zoom="0.70710678"
     inkscape:cx="604.5763"
     inkscape:cy="231.93103"
     inkscape:window-width="2544"
     inkscape:window-height="1402"
     inkscape:window-x="0"
     inkscape:window-y="0"
     inkscape:window-maximized="1"
     inkscape:current-layer="layer1"
     showgrid="false" />
  <defs
     id="defs1">
    <rect
       x="236.88077"
       y="45.608387"
       width="148.49242"
       height="83.4386"
       id="rect12" />
    <rect
       x="-217.78889"
       y="-138.59293"
       width="1077.6307"
       height="1747.968"
       id="rect10" />
    <rect
       x="232.25"
       y="-52.5"
       width="142.75"
       height="35.25"
       id="rect9" />
    <inkscape:path-effect
       effect="fillet_chamfer"
       id="path-effect9"
       is_visible="true"
       lpeversion="1"
       nodesatellites_param="F,0,0,1,0,0,0,1 @ F,0,0,1,0,0,0,1 @ F,0,0,1,0,0,0,1 @ F,0,0,1,0,0,0,1"
       radius="0"
       unit="px"
       method="auto"
       mode="F"
       chamfer_steps="1"
       flexible="false"
       use_knot_distance="true"
       apply_no_radius="true"
       apply_with_radius="true"
       only_selected="false"
       hide_knots="false" />
    <inkscape:path-effect
       effect="fillet_chamfer"
       id="path-effect8"
       is_visible="true"
       lpeversion="1"
       nodesatellites_param="F,0,0,1,0,0,0,1 @ F,0,0,1,0,0,0,1 @ F,0,0,1,0,0,0,1 @ F,0,0,1,0,0,0,1"
       radius="0"
       unit="px"
       method="auto"
       mode="F"
       chamfer_steps="1"
       flexible="false"
       use_knot_distance="true"
       apply_no_radius="true"
       apply_with_radius="true"
       only_selected="false"
       hide_knots="false" />
    <inkscape:path-effect
       effect="fillet_chamfer"
       id="path-effect7"
       is_visible="true"
       lpeversion="1"
       nodesatellites_param="F,0,0,1,0,0,0,1 @ F,0,0,1,0,0,0,1 @ F,0,0,1,0,0,0,1 @ F,0,0,1,0,0,0,1"
       radius="0"
       unit="px"
       method="auto"
       mode="F"
       chamfer_steps="1"
       flexible="false"
       use_knot_distance="true"
       apply_no_radius="true"
       apply_with_radius="true"
       only_selected="false"
       hide_knots="false" />
    <rect
       x="-41"
       y="-57"
       width="691"
       height="120"
       id="rect7" />
    <rect
       x="-124"
       y="-116"
       width="832"
       height="1704"
       id="rect5" />
    <rect
       x="243.77505"
       y="-39.774757"
       width="108.27573"
       height="27.223612"
       id="rect8" />
    <rect
       x="245.63123"
       y="-25.279066"
       width="105.00536"
       height="23.246136"
       id="rect4" />
    <rect
       x="-35.248203"
       y="27.114002"
       width="651.63983"
       height="192.9613"
       id="rect6" />
    <rect
       x="-77.726807"
       y="-81.342003"
       width="773.65283"
       height="1628.6477"
       id="rect3" />
    <rect
       x="-42.026703"
       y="-12.201301"
       width="675.59058"
       height="41.574802"
       id="rect1" />
    <rect
       x="-35.248203"
       y="27.114002"
       width="651.63983"
       height="192.9613"
       id="rect6-0" />
    <rect
       x="-35.248203"
       y="27.114002"
       width="651.63983"
       height="192.9613"
       id="rect6-6" />
    <rect
       x="-35.248203"
       y="27.114002"
       width="651.63983"
       height="192.9613"
       id="rect6-0-3" />
  </defs>
  <g
     inkscape:label="Layer 1"
     inkscape:groupmode="layer"
     id="layer1">
    <path
       id="rect2"
       d="M 1.4108887,2.234489 H 157.33911 V 383.23449 H 1.4108887 Z"
       style="display:inline;fill:#282828;stroke-width:2.8561"
       inkscape:path-effect="#path-effect9"
       inkscape:original-d="M 1.4108887,2.234489 H 157.33911 V 383.23449 H 1.4108887 Z"
       transform="translate(-1.2349433,-0.57113841)" />
    <path
       id="text221"
       style="font-size:14.6667px;line-height:18.4px;font-family:'Input Mono';-inkscape-font-specification:'Input Mono';text-align:center;letter-spacing:0px;word-spacing:0px;white-space:pre;display:inline;fill:#928374;stroke-width:0.264583"
       d="m 155.75139,378.92415 h 0.35278 v 5.2917 h -0.35278 z m -155.57543103,0 h 0.3527785 v 5.2917 H 0.17595897 Z M 155.75139,374.05582 h 0.35278 v 5.29167 h -0.35278 z m -155.57543103,0 h 0.3527785 v 5.29167 H 0.17595897 Z M 155.75139,369.18743 h 0.35278 v 5.2917 h -0.35278 z m -155.57543103,0 h 0.3527785 v 5.2917 H 0.17595897 Z M 155.75139,364.3191 h 0.35278 v 5.29169 h -0.35278 z m -155.57543103,0 h 0.3527785 v 5.29169 H 0.17595897 Z M 155.75139,359.45079 h 0.35278 v 5.2917 h -0.35278 z m -155.57543103,0 h 0.3527785 v 5.2917 H 0.17595897 Z M 155.75139,354.58246 h 0.35278 v 5.29167 h -0.35278 z m -155.57543103,0 h 0.3527785 v 5.29167 H 0.17595897 Z M 155.75139,349.7141 h 0.35278 v 5.29167 h -0.35278 z m -155.57543103,0 h 0.3527785 v 5.29167 H 0.17595897 Z M 155.75139,344.84574 h 0.35278 v 5.29169 h -0.35278 z m -155.57543103,0 h 0.3527785 v 5.29169 H 0.17595897 Z M 155.75139,339.97743 h 0.35278 v 5.2917 h -0.35278 z m -155.57543103,0 h 0.3527785 v 5.2917 H 0.17595897 Z M 155.75139,335.1091 h 0.35278 v 5.29167 h -0.35278 z m -155.57543103,0 h 0.3527785 v 5.29167 H 0.17595897 Z M 155.75139,330.24074 h 0.35278 v 5.29167 h -0.35278 z m -155.57543103,0 h 0.3527785 v 5.29167 H 0.17595897 Z M 155.75139,325.37238 h 0.35278 v 5.29169 h -0.35278 z m -155.57543103,0 h 0.3527785 v 5.29169 H 0.17595897 Z M 155.75139,320.50407 h 0.35278 v 5.2917 h -0.35278 z m -155.57543103,0 h 0.3527785 v 5.2917 H 0.17595897 Z M 155.75139,315.63574 h 0.35278 v 5.29167 h -0.35278 z m -155.57543103,0 h 0.3527785 v 5.29167 H 0.17595897 Z M 155.75139,310.76738 h 0.35278 v 5.29167 h -0.35278 z m -155.57543103,0 h 0.3527785 v 5.29167 H 0.17595897 Z M 155.75139,305.89902 h 0.35278 v 5.29169 h -0.35278 z m -155.57543103,0 h 0.3527785 v 5.29169 H 0.17595897 Z M 155.75139,301.03071 h 0.35278 v 5.29167 h -0.35278 z m -155.57543103,0 h 0.3527785 v 5.29167 H 0.17595897 Z M 155.75139,296.16237 h 0.35278 v 5.29168 h -0.35278 z m -155.57543103,0 h 0.3527785 v 5.29168 H 0.17595897 Z M 155.75139,291.29403 h 0.35278 v 5.29167 h -0.35278 z m -155.57543103,0 h 0.3527785 v 5.29167 H 0.17595897 Z M 155.75139,286.42569 h 0.35278 v 5.29168 h -0.35278 z m -155.57543103,0 h 0.3527785 v 5.29168 H 0.17595897 Z M 155.75139,281.55735 h 0.35278 v 5.29168 h -0.35278 z m -155.57543103,0 h 0.3527785 v 5.29168 H 0.17595897 Z M 155.75139,276.68901 h 0.35278 v 5.29168 h -0.35278 z m -155.57543103,0 h 0.3527785 v 5.29168 H 0.17595897 Z M 155.75139,271.82067 h 0.35278 v 5.29168 h -0.35278 z m -155.57543103,0 h 0.3527785 v 5.29168 H 0.17595897 Z M 155.75139,266.95233 h 0.35278 v 5.29168 h -0.35278 z m -155.57543103,0 h 0.3527785 v 5.29168 H 0.17595897 Z M 155.75139,262.08399 h 0.35278 v 5.29168 h -0.35278 z m -155.57543103,0 h 0.3527785 v 5.29168 H 0.17595897 Z M 155.75139,257.21565 h 0.35278 v 5.29168 h -0.35278 z m -155.57543103,0 h 0.3527785 v 5.29168 H 0.17595897 Z M 155.75139,252.34731 h 0.35278 v 5.29168 h -0.35278 z m -155.57543103,0 h 0.3527785 v 5.29168 H 0.17595897 Z M 155.75139,247.47897 h 0.35278 v 5.29168 h -0.35278 z m -155.57543103,0 h 0.3527785 v 5.29168 H 0.17595897 Z M 155.75139,242.61063 h 0.35278 v 5.29168 h -0.35278 z m -155.57543103,0 h 0.3527785 v 5.29168 H 0.17595897 Z M 155.75139,237.74229 h 0.35278 v 5.29168 h -0.35278 z m -155.57543103,0 h 0.3527785 v 5.29168 H 0.17595897 Z M 155.75139,232.87395 h 0.35278 v 5.29168 h -0.35278 z m -155.57543103,0 h 0.3527785 v 5.29168 H 0.17595897 Z M 155.75139,228.00561 h 0.35278 v 5.29168 h -0.35278 z m -155.57543103,0 h 0.3527785 v 5.29168 H 0.17595897 Z M 155.75139,223.13727 h 0.35278 v 5.29168 h -0.35278 z m -155.57543103,0 h 0.3527785 v 5.29168 H 0.17595897 Z M 155.75139,218.26893 h 0.35278 v 5.29168 h -0.35278 z m -155.57543103,0 h 0.3527785 v 5.29168 H 0.17595897 Z M 155.75139,213.40059 h 0.35278 v 5.29168 h -0.35278 z m -155.57543103,0 h 0.3527785 v 5.29168 H 0.17595897 Z M 155.75139,208.53225 h 0.35278 v 5.29168 h -0.35278 z m -155.57543103,0 h 0.3527785 v 5.29168 H 0.17595897 Z M 155.75139,203.66391 h 0.35278 v 5.29168 h -0.35278 z m -155.57543103,0 h 0.3527785 v 5.29168 H 0.17595897 Z M 155.75139,198.79557 h 0.35278 v 5.29168 h -0.35278 z m -155.57543103,0 h 0.3527785 v 5.29168 H 0.17595897 Z M 155.75139,193.92723 h 0.35278 v 5.29168 h -0.35278 z m -155.57543103,0 h 0.3527785 v 5.29168 H 0.17595897 Z M 155.75139,189.05889 h 0.35278 v 5.29168 h -0.35278 z m -155.57543103,0 h 0.3527785 v 5.29168 H 0.17595897 Z M 155.75139,184.19055 h 0.35278 v 5.29168 h -0.35278 z m -155.57543103,0 h 0.3527785 v 5.29168 H 0.17595897 Z M 155.75139,179.32221 h 0.35278 v 5.29168 h -0.35278 z m -155.57543103,0 h 0.3527785 v 5.29168 H 0.17595897 Z M 155.75139,174.45387 h 0.35278 v 5.29168 h -0.35278 z m -155.57543103,0 h 0.3527785 v 5.29168 H 0.17595897 Z M 155.75139,169.58553 h 0.35278 v 5.29168 h -0.35278 z m -155.57543103,0 h 0.3527785 v 5.29168 H 0.17595897 Z M 155.75139,164.71721 h 0.35278 v 5.29168 h -0.35278 z m -155.57543103,0 h 0.3527785 v 5.29168 H 0.17595897 Z M 155.75139,159.84888 h 0.35278 v 5.29168 h -0.35278 z m -155.57543103,0 h 0.3527785 v 5.29168 H 0.17595897 Z M 155.75139,154.98055 h 0.35278 v 5.29167 h -0.35278 z m -155.57543103,0 h 0.3527785 v 5.29167 H 0.17595897 Z M 155.75139,150.11221 h 0.35278 v 5.29168 h -0.35278 z m -155.57543103,0 h 0.3527785 v 5.29168 H 0.17595897 Z M 155.75139,145.24388 h 0.35278 v 5.29168 h -0.35278 z m -155.57543103,0 h 0.3527785 v 5.29168 H 0.17595897 Z M 155.75139,140.37555 h 0.35278 v 5.29168 h -0.35278 z m -155.57543103,0 h 0.3527785 v 5.29168 H 0.17595897 Z M 155.75139,135.50722 h 0.35278 v 5.29168 h -0.35278 z m -155.57543103,0 h 0.3527785 v 5.29168 H 0.17595897 Z M 155.75139,130.63889 h 0.35278 v 5.29168 h -0.35278 z m -155.57543103,0 h 0.3527785 v 5.29168 H 0.17595897 Z M 155.75139,125.77056 h 0.35278 v 5.29168 h -0.35278 z m -155.57543103,0 h 0.3527785 v 5.29168 H 0.17595897 Z M 155.75139,120.90223 h 0.35278 v 5.29167 h -0.35278 z m -155.57543103,0 h 0.3527785 v 5.29167 H 0.17595897 Z M 155.75139,116.03389 h 0.35278 v 5.29168 h -0.35278 z m -155.57543103,0 h 0.3527785 v 5.29168 H 0.17595897 Z M 155.75139,111.16556 h 0.35278 v 5.29168 h -0.35278 z m -155.57543103,0 h 0.3527785 v 5.29168 H 0.17595897 Z M 155.75139,106.29723 h 0.35278 v 5.29168 h -0.35278 z m -155.57543103,0 h 0.3527785 v 5.29168 H 0.17595897 Z M 155.75139,101.42889 h 0.35278 v 5.29168 h -0.35278 z m -155.57543103,0 h 0.3527785 v 5.29168 H 0.17595897 Z M 155.75139,96.560561 h 0.35278 v 5.291679 h -0.35278 z m -155.57543103,0 h 0.3527785 v 5.291679 H 0.17595897 Z M 155.75139,91.692231 h 0.35278 v 5.29168 h -0.35278 z m -155.57543103,0 h 0.3527785 v 5.29168 H 0.17595897 Z M 155.75139,86.823901 h 0.35278 v 5.29168 h -0.35278 z m -155.57543103,0 h 0.3527785 v 5.29168 H 0.17595897 Z M 155.75139,81.955571 h 0.35278 v 5.29168 h -0.35278 z m -155.57543103,0 h 0.3527785 v 5.29168 H 0.17595897 Z M 155.75139,77.087241 h 0.35278 v 5.29168 h -0.35278 z m -155.57543103,0 h 0.3527785 v 5.29168 H 0.17595897 Z M 155.75139,72.218911 h 0.35278 v 5.29167 h -0.35278 z m -155.57543103,0 h 0.3527785 v 5.29167 H 0.17595897 Z M 155.75139,67.350571 h 0.35278 v 5.29168 h -0.35278 z m -155.57543103,0 h 0.3527785 v 5.29168 H 0.17595897 Z M 155.75139,62.482241 h 0.35278 v 5.29167 h -0.35278 z m -155.57543103,0 h 0.3527785 v 5.29167 H 0.17595897 Z M 155.75139,57.613901 h 0.35278 v 5.29168 h -0.35278 z m -155.57543103,0 h 0.3527785 v 5.29168 H 0.17595897 Z M 155.75139,52.745571 h 0.35278 v 5.29168 h -0.35278 z m -155.57543103,0 h 0.3527785 v 5.29168 H 0.17595897 Z M 155.75139,47.877231 h 0.35278 v 5.29168 h -0.35278 z m -155.57543103,0 h 0.3527785 v 5.29168 H 0.17595897 Z M 155.75139,43.008901 h 0.35278 v 5.29168 h -0.35278 z m -155.57543103,0 h 0.3527785 v 5.29168 H 0.17595897 Z M 155.75139,38.140571 h 0.35278 v 5.29168 h -0.35278 z m -155.57543103,0 h 0.3527785 v 5.29168 H 0.17595897 Z M 155.75139,33.272241 h 0.35278 v 5.29167 h -0.35278 z m -155.57543103,0 h 0.3527785 v 5.29167 H 0.17595897 Z M 155.75139,28.403901 h 0.35278 v 5.29168 h -0.35278 z m -155.57543103,0 h 0.3527785 v 5.29168 H 0.17595897 Z M 155.75139,23.535571 h 0.35278 v 5.29168 h -0.35278 z m -155.57543103,0 h 0.3527785 v 5.29168 H 0.17595897 Z M 155.75139,18.667231 h 0.35278 v 5.29168 h -0.35278 z m -155.57543103,0 h 0.3527785 v 5.29168 H 0.17595897 Z M 155.75139,13.798901 h 0.35278 v 5.29168 h -0.35278 z m -155.57543103,0 h 0.3527785 v 5.29168 H 0.17595897 Z M 155.75139,8.9305705 h 0.35278 v 5.2916805 h -0.35278 z m -155.57543103,0 h 0.3527785 V 14.222251 H 0.17595897 Z M 155.75139,4.0622305 h 0.35278 v 5.2916797 h -0.35278 z m -155.57543103,0 h 0.3527785 V 9.3539102 H 0.17595897 Z M 154.6225,1.6633505 h 1.48167 v 2.82223 h -0.35278 v -2.46945 h -1.12889 z m -2.46946,0 h 2.61056 v 0.35278 h -2.61056 z m -2.46944,0 h 2.61057 v 0.35278 h -2.61057 z m -2.46945,0 h 2.61056 v 0.35278 h -2.61056 z m -2.46946,0 h 2.61056 v 0.35278 h -2.61056 z m -2.46945,0 h 2.61056 v 0.35278 h -2.61056 z m -2.46944,0 h 2.61056 v 0.35278 h -2.61056 z m -2.46946,0 h 2.61057 v 0.35278 h -2.61057 z m -2.46945,0 h 2.61056 v 0.35278 h -2.61056 z m -2.46944,0 h 2.61056 v 0.35278 h -2.61056 z m -2.46946,0 h 2.61057 v 0.35278 h -2.61057 z m -2.46944,0 h 2.61056 v 0.35278 h -2.61056 z m -2.46946,0 h 2.61056 v 0.35278 h -2.61056 z m -2.46944,0 h 2.61056 v 0.35278 h -2.61056 z m -2.46946,0 h 2.61056 v 0.35278 h -2.61056 z m -2.46945,0 h 2.61056 v 0.35278 h -2.61056 z m -2.46945,0 h 2.61056 v 0.35278 h -2.61056 z m -2.46946,0 h 2.61056 v 0.35278 h -2.61056 z m -2.46944,0 h 2.61056 v 0.35278 h -2.61056 z m -2.46946,0 h 2.61056 v 0.35278 h -2.61056 z m -2.46945,0 h 2.61056 v 0.35278 h -2.61056 z m -2.46945,0 h 2.61056 v 0.35278 h -2.61056 z m -2.46945,0 h 2.61056 v 0.35278 h -2.61056 z m -2.469453,0 h 2.610563 v 0.35278 h -2.610563 z m -2.469451,0 h 2.610561 v 0.35278 h -2.610561 z m -2.469456,0 h 2.610561 v 0.35278 H 92.88622 Z m -2.469447,0 h 2.610562 v 0.35278 h -2.610562 z m -2.469456,0 h 2.610561 v 0.35278 h -2.610561 z m -22.225064,0 h 2.610562 v 0.35278 h -2.610562 z m -2.469446,0 h 2.610562 v 0.35278 h -2.610562 z m -2.469451,0 h 2.610561 v 0.35278 h -2.610561 z m -2.469452,0 h 2.610562 v 0.35278 h -2.610562 z m -2.469454,0 h 2.610562 v 0.35278 H 55.84445 Z m -2.469451,0 h 2.610561 v 0.35278 h -2.610561 z m -2.469452,0 h 2.610562 v 0.35278 h -2.610562 z m -2.469451,0 h 2.610561 v 0.35278 h -2.610561 z m -2.469454,0 h 2.610559 v 0.35278 h -2.610559 z m -2.469452,0 h 2.610562 v 0.35278 H 43.49719 Z m -2.469449,0 h 2.610562 v 0.35278 h -2.610562 z m -2.469451,0 h 2.610562 v 0.35278 H 38.55829 Z m -2.469449,0 H 38.6994 v 0.35278 h -2.610559 z m -2.469451,0 h 2.610561 v 0.35278 H 33.61939 Z m -2.469452,0 H 33.7605 v 0.35278 h -2.610562 z m -2.469451,0 h 2.610561 v 0.35278 h -2.610561 z m -2.469454,0 h 2.610561 v 0.35278 h -2.610561 z m -2.469452,0 h 2.610562 v 0.35278 h -2.610562 z m -2.469449,0 h 2.610559 v 0.35278 h -2.610559 z m -2.469454,0 h 2.610562 v 0.35278 h -2.610562 z m -2.469451,0 h 2.610561 v 0.35278 h -2.610561 z m -2.469451,0 h 2.610561 v 0.35278 h -2.610561 z m -2.469452,0 h 2.610562 v 0.35278 h -2.610562 z m -2.4694513,0 h 2.6105623 v 0.35278 H 8.9248727 Z m -2.4694509,0 h 2.6105619 v 0.35278 H 6.4554218 Z m -2.469452,0 h 2.6105614 v 0.35278 H 3.9859698 Z m -2.4694512,0 H 4.12708 v 0.35278 H 1.5165186 Z m -1.34055963,0 H 1.6576288 v 0.35278 H 0.52873747 v 2.46945 h -0.3527785 z" />
    <rect
       style="display:inline;fill:rgba(26,26,26,0.85);stroke-width:0.183393"
       id="rect11"
       width="152.75322"
       height="1.6633508"
       x="3.3509455"
       y="1.110223e-16" />
    <text
       xml:space="preserve"
       transform="matrix(0.26458333,0,0,0.26458333,-4.187768,-12.62082)"
       id="text11"
       style="font-size:14.6667px;line-height:18.4px;font-family:'Input Mono';-inkscape-font-specification:'Input Mono';text-align:center;letter-spacing:0px;word-spacing:0px;white-space:pre;shape-inside:url(#rect12);display:inline;fill:#928374;fill-opacity:1"><tspan
         x="287.79355"
         y="58.807431"
         id="tspan2">@cnix</tspan></text>
  </g>
</svg>
