<?xml version="1.0" encoding="UTF-8" standalone="no"?>
<!-- Created with Inkscape (http://www.inkscape.org/) -->

<svg
   width="141.56mm"
   height="141.56mm"
   viewBox="0 0 141.56 141.55999"
   version="1.1"
   id="svg1"
   inkscape:version="1.3.2 (091e20ef0f, 2023-11-25)"
   sodipodi:docname="nixblueflake.svg"
   xmlns:inkscape="http://www.inkscape.org/namespaces/inkscape"
   xmlns:sodipodi="http://sodipodi.sourceforge.net/DTD/sodipodi-0.dtd"
   xmlns="http://www.w3.org/2000/svg"
   xmlns:svg="http://www.w3.org/2000/svg">
  <sodipodi:namedview
     id="namedview1"
     pagecolor="#ffffff"
     bordercolor="#000000"
     borderopacity="0.25"
     inkscape:showpageshadow="2"
     inkscape:pageopacity="0.0"
     inkscape:pagecheckerboard="0"
     inkscape:deskcolor="#d1d1d1"
     inkscape:document-units="mm"
     inkscape:zoom="0.79626984"
     inkscape:cx="266.86933"
     inkscape:cy="232.3333"
     inkscape:window-width="1267"
     inkscape:window-height="1402"
     inkscape:window-x="0"
     inkscape:window-y="0"
     inkscape:window-maximized="1"
     inkscape:current-layer="layer1" />
  <defs
     id="defs1" />
  <g
     inkscape:label="Layer 1"
     inkscape:groupmode="layer"
     id="layer1"
     transform="translate(-34.13125,-87.047917)">
    <g
       fill-rule="evenodd"
       id="g3"
       transform="matrix(0.282224,0,0,0.282224,34.111831,87.031179)">
      <path
         d="m 197.245,168.956 -122.22,211.66 -28.535,-48.37 32.939,-56.688 -65.416,-0.172 -13.941,-24.17 14.236,-24.72 93.112,0.294 33.464,-57.69 z m 9.37,169.2 244.42,0.013 -27.622,48.897 -65.562,-0.182 32.559,56.737 -13.961,24.159 -28.527,0.031 -46.302,-80.784 -66.693,-0.135 z m 142.26,-92.74 -122.2,-211.68 56.157,-0.527 32.623,56.87 32.857,-56.566 27.902,0.011 14.29,24.69 -46.81,80.49 33.23,57.826 z"
         fill="#83a59a"
         id="path2" />
      <path
         transform="translate(-156.42,966.54)"
         d="m 451.3,-803.62 -244.41,-0.012 27.622,-48.897 65.562,0.182 -32.559,-56.737 13.96,-24.159 28.528,-0.031 46.301,80.784 66.693,0.135 z m 9.6,169.65 122.22,-211.66 28.535,48.37 -32.939,56.687 65.415,0.172 13.942,24.17 -14.236,24.72 -93.112,-0.293 -33.464,57.69 z m -151.5,-76.28 122.2,211.68 -56.157,0.527 -32.623,-56.87 -32.857,56.566 -27.902,-0.011 -14.29,-24.69 46.81,-80.49 -33.23,-57.826 z"
         fill="#458588"
         style="isolation:auto;mix-blend-mode:normal"
         id="path3" />
    </g>
  </g>
</svg>
